<svg class="header-top__svg header-top__svg--full" id="uuid-c9e63c1a-d5b0-40fe-ba8c-0a0e8f2c2a95" data-name="Laag 1" xmlns="http://www.w3.org/2000/svg" xmlns:xlink="http://www.w3.org/1999/xlink" viewBox="0 0 3166.677 457.558"> <defs> <linearGradient id="uuid-81a33748-b172-429e-a328-28da2d5795c2" data-name="Nieuwe verloopstaal 1" x1="861.839" y1="45.019" x2="502.695" y2="501.93" gradientUnits="userSpaceOnUse"> <stop offset="0" stop-color="#68686d"></stop> <stop offset=".001" stop-color="#68686d"></stop> <stop offset="1" stop-color="#323234"></stop> </linearGradient> <linearGradient id="uuid-f1ee0660-c97c-4592-ab7e-05cae792f4bb" data-name="Nieuwe verloopstaal 1" x1="704.585" y1="-58.496" x2="211.759" y2="390.435" xlink:href="#uuid-81a33748-b172-429e-a328-28da2d5795c2"></linearGradient> </defs> <g> <g> <polygon points="973.577 223.503 1094.708 223.503 1119.458 275.722 1205.792 275.722 1077.459 4.433 1034.118 95.073 1067.535 165.901 1000.73 165.901 973.577 223.503" fill="#009640" stroke-width="0"></polygon> <polygon points="953.531 4.433 825.229 275.722 911.92 275.722 1040.222 4.433 953.531 4.433" fill="#009640" stroke-width="0"></polygon> </g> <g> <rect x="1259.707" y="102.316" width="75.293" height="173.406" fill="#009640" stroke-width="0"></rect> <rect x="1162.765" y="4.437" width="268.227" height="64.94" fill="#009640" stroke-width="0"></rect> </g> <path d="M1674.079,85.482l23.555-55.492c-31.267-19.573-70.135-29.99-115.348-29.99-79.287,0-125.902,32.272-125.902,86.856,0,55.241,28.597,75.855,116.047,85.781,32.36,3.673,67.841-.374,67.841-.374l.043,44.19s-38.928,4.597-74.308,2.133c-35.38-2.465-67.151-13.04-94.342-31.277l-24.611,57.982c35.475,23.037,81.402,35.199,137.224,35.199,86.059,0,130.683-29.882,130.683-87.255,0-55.704-29.748-77.347-120.476-85.826-28.924-2.704-63.387,1.891-63.387,1.891l-.109-44.911s37.987-4.2,66.694-2.703c28.707,1.497,54.118,9.419,76.396,23.796" fill="#009640" stroke-width="0"></path> </g> <path d="M3143.646,138.545v97.883l-75.248-97.883h-30.18v135.011h23.031v-108.009l82.993,108.009h22.435v-135.011h-23.031ZM2986.399,159.193v-20.648h-119.723v135.011h119.723v-20.649h-95.699v-37.127h82.795v-20.649h-82.795v-35.938h95.699ZM2824.983,138.545h-128.461v20.648h52.218v114.363h24.024v-114.363h52.218v-20.648ZM2619.151,163.364l25.017,57.578h-50.033l25.017-57.578ZM2667.597,273.557h26.208l-61.947-135.011h-24.421l-61.947,135.011h25.215l14.494-32.363h67.904l14.494,32.363ZM2425.65,252.907v-114.362h-24.025v135.011h115.754v-20.649h-91.729ZM2321.274,203.47h-49.438v-44.277h49.438c18.066,0,26.804,7.148,26.804,22.039,0,15.09-8.737,22.238-26.804,22.238M2324.649,138.545h-76.837v135.011h24.024v-49.439h52.813c30.973,0,48.048-15.088,48.048-42.886,0-27.597-17.075-42.687-48.048-42.687M2140.796,275.939c34.747,0,53.211-18.067,53.211-53.21v-84.184h-24.024v81.602c0,23.031-10.126,34.349-30.576,34.349-13.699,0-25.415-4.765-33.554-13.501l-12.508,17.472c11.118,11.317,27.2,17.472,47.452,17.472M2032.59,273.557h24.024v-135.011h-24.024v135.011ZM1877.528,159.193h53.21c16.877,0,25.018,6.751,25.018,20.451s-8.141,20.45-25.018,20.45h-53.21v-40.901ZM1986.729,273.557l-38.121-54.204c20.45-4.169,31.569-17.868,31.569-39.709,0-26.605-16.281-41.099-46.063-41.099h-80.61v135.011h24.024v-52.813h43.679l36.93,52.813h28.591Z" fill="#93939a" stroke-width="0"></path> <polygon points="810.702 4.44 405.941 457.558 669.204 457.558 897.227 4.44 810.702 4.44" fill="url(#uuid-81a33748-b172-429e-a328-28da2d5795c2)"></polygon> <polygon points="672.696 4.44 0 457.558 276.145 457.558 763.927 4.44 672.696 4.44" fill="url(#uuid-f1ee0660-c97c-4592-ab7e-05cae792f4bb)"></polygon> </svg>